<mxfile host="Electron" modified="2025-04-14T07:20:00.150Z" agent="Mozilla/5.0 (Windows NT 10.0; Win64; x64) AppleWebKit/537.36 (KHTML, like Gecko) draw.io/22.0.2 Chrome/114.0.5735.289 Electron/25.8.4 Safari/537.36" etag="BPpAnLqgd2zOqTQk9YRj" version="22.0.2" type="device" pages="2">
  <diagram id="R2lEEEUBdFMjLlhIrx00" name="Localisation">
    <mxGraphModel dx="1418" dy="820" grid="1" gridSize="10" guides="1" tooltips="1" connect="1" arrows="1" fold="1" page="1" pageScale="1" pageWidth="850" pageHeight="1100" math="0" shadow="0" extFonts="Permanent Marker^https://fonts.googleapis.com/css?family=Permanent+Marker">
      <root>
        <mxCell id="0" />
        <mxCell id="1" parent="0" />
        <mxCell id="pSALJJKO5EZUqhPM9DtS-37" value="" style="ellipse;whiteSpace=wrap;html=1;" parent="1" vertex="1">
          <mxGeometry x="270" y="100" width="100" height="70" as="geometry" />
        </mxCell>
        <mxCell id="pSALJJKO5EZUqhPM9DtS-32" value="" style="ellipse;whiteSpace=wrap;html=1;" parent="1" vertex="1">
          <mxGeometry x="50" y="530" width="365" height="100" as="geometry" />
        </mxCell>
        <mxCell id="pSALJJKO5EZUqhPM9DtS-1" value="Attribute" style="rounded=0;whiteSpace=wrap;html=1;" parent="1" vertex="1">
          <mxGeometry x="135" y="190" width="120" height="60" as="geometry" />
        </mxCell>
        <mxCell id="pSALJJKO5EZUqhPM9DtS-5" style="edgeStyle=orthogonalEdgeStyle;rounded=0;orthogonalLoop=1;jettySize=auto;html=1;" parent="1" source="pSALJJKO5EZUqhPM9DtS-3" target="pSALJJKO5EZUqhPM9DtS-1" edge="1">
          <mxGeometry relative="1" as="geometry" />
        </mxCell>
        <mxCell id="pSALJJKO5EZUqhPM9DtS-6" value="ID" style="edgeLabel;html=1;align=center;verticalAlign=middle;resizable=0;points=[];" parent="pSALJJKO5EZUqhPM9DtS-5" vertex="1" connectable="0">
          <mxGeometry x="-0.0889" y="-1" relative="1" as="geometry">
            <mxPoint as="offset" />
          </mxGeometry>
        </mxCell>
        <mxCell id="pSALJJKO5EZUqhPM9DtS-3" value="Localization" style="rounded=0;whiteSpace=wrap;html=1;" parent="1" vertex="1">
          <mxGeometry x="135" y="360" width="120" height="60" as="geometry" />
        </mxCell>
        <mxCell id="pSALJJKO5EZUqhPM9DtS-17" style="rounded=0;orthogonalLoop=1;jettySize=auto;html=1;entryX=0;entryY=0.75;entryDx=0;entryDy=0;endArrow=none;endFill=0;" parent="1" source="pSALJJKO5EZUqhPM9DtS-9" target="pSALJJKO5EZUqhPM9DtS-3" edge="1">
          <mxGeometry relative="1" as="geometry" />
        </mxCell>
        <mxCell id="pSALJJKO5EZUqhPM9DtS-9" value="&lt;u&gt;LC_ID&lt;/u&gt;" style="ellipse;whiteSpace=wrap;html=1;" parent="1" vertex="1">
          <mxGeometry x="20" y="390" width="80" height="50" as="geometry" />
        </mxCell>
        <mxCell id="pSALJJKO5EZUqhPM9DtS-10" value="LC_AT_1" style="ellipse;whiteSpace=wrap;html=1;" parent="1" vertex="1">
          <mxGeometry x="65" y="550" width="80" height="50" as="geometry" />
        </mxCell>
        <mxCell id="pSALJJKO5EZUqhPM9DtS-29" style="rounded=0;orthogonalLoop=1;jettySize=auto;html=1;entryX=1;entryY=0.75;entryDx=0;entryDy=0;endArrow=none;endFill=0;" parent="1" source="pSALJJKO5EZUqhPM9DtS-11" target="pSALJJKO5EZUqhPM9DtS-3" edge="1">
          <mxGeometry relative="1" as="geometry" />
        </mxCell>
        <mxCell id="pSALJJKO5EZUqhPM9DtS-11" value="LC_AT_4" style="ellipse;whiteSpace=wrap;html=1;" parent="1" vertex="1">
          <mxGeometry x="325" y="555" width="80" height="50" as="geometry" />
        </mxCell>
        <mxCell id="pSALJJKO5EZUqhPM9DtS-28" style="rounded=0;orthogonalLoop=1;jettySize=auto;html=1;entryX=1;entryY=1;entryDx=0;entryDy=0;endArrow=none;endFill=0;" parent="1" source="pSALJJKO5EZUqhPM9DtS-12" target="pSALJJKO5EZUqhPM9DtS-3" edge="1">
          <mxGeometry relative="1" as="geometry" />
        </mxCell>
        <mxCell id="pSALJJKO5EZUqhPM9DtS-12" value="LC_AT_3" style="ellipse;whiteSpace=wrap;html=1;strokeColor=default;" parent="1" vertex="1">
          <mxGeometry x="235" y="555" width="80" height="50" as="geometry" />
        </mxCell>
        <mxCell id="pSALJJKO5EZUqhPM9DtS-26" style="rounded=0;orthogonalLoop=1;jettySize=auto;html=1;entryX=0.683;entryY=0.983;entryDx=0;entryDy=0;endArrow=none;endFill=0;entryPerimeter=0;" parent="1" source="pSALJJKO5EZUqhPM9DtS-13" target="pSALJJKO5EZUqhPM9DtS-3" edge="1">
          <mxGeometry relative="1" as="geometry" />
        </mxCell>
        <mxCell id="pSALJJKO5EZUqhPM9DtS-13" value="LC_AT_2" style="ellipse;whiteSpace=wrap;html=1;" parent="1" vertex="1">
          <mxGeometry x="145" y="550" width="80" height="50" as="geometry" />
        </mxCell>
        <mxCell id="pSALJJKO5EZUqhPM9DtS-30" style="rounded=0;orthogonalLoop=1;jettySize=auto;html=1;entryX=1;entryY=0.5;entryDx=0;entryDy=0;endArrow=none;endFill=0;" parent="1" source="pSALJJKO5EZUqhPM9DtS-15" target="pSALJJKO5EZUqhPM9DtS-3" edge="1">
          <mxGeometry relative="1" as="geometry" />
        </mxCell>
        <mxCell id="pSALJJKO5EZUqhPM9DtS-15" value="LC_TEXT_DE" style="ellipse;whiteSpace=wrap;html=1;" parent="1" vertex="1">
          <mxGeometry x="340" y="430" width="80" height="50" as="geometry" />
        </mxCell>
        <mxCell id="pSALJJKO5EZUqhPM9DtS-31" style="rounded=0;orthogonalLoop=1;jettySize=auto;html=1;entryX=1;entryY=0.25;entryDx=0;entryDy=0;endArrow=none;endFill=0;" parent="1" source="pSALJJKO5EZUqhPM9DtS-16" target="pSALJJKO5EZUqhPM9DtS-3" edge="1">
          <mxGeometry relative="1" as="geometry" />
        </mxCell>
        <mxCell id="pSALJJKO5EZUqhPM9DtS-16" value="LC_TEXT_EN" style="ellipse;whiteSpace=wrap;html=1;" parent="1" vertex="1">
          <mxGeometry x="340" y="350" width="80" height="50" as="geometry" />
        </mxCell>
        <mxCell id="pSALJJKO5EZUqhPM9DtS-25" value="" style="endArrow=none;html=1;rounded=0;" parent="1" source="pSALJJKO5EZUqhPM9DtS-10" target="pSALJJKO5EZUqhPM9DtS-3" edge="1">
          <mxGeometry width="50" height="50" relative="1" as="geometry">
            <mxPoint x="400" y="450" as="sourcePoint" />
            <mxPoint x="450" y="400" as="targetPoint" />
          </mxGeometry>
        </mxCell>
        <mxCell id="pSALJJKO5EZUqhPM9DtS-34" style="rounded=0;orthogonalLoop=1;jettySize=auto;html=1;endArrow=none;endFill=0;" parent="1" source="pSALJJKO5EZUqhPM9DtS-33" target="pSALJJKO5EZUqhPM9DtS-1" edge="1">
          <mxGeometry relative="1" as="geometry" />
        </mxCell>
        <mxCell id="pSALJJKO5EZUqhPM9DtS-33" value="&lt;u&gt;AT_ID&lt;/u&gt;" style="ellipse;whiteSpace=wrap;html=1;" parent="1" vertex="1">
          <mxGeometry x="170" y="100" width="80" height="50" as="geometry" />
        </mxCell>
        <mxCell id="pSALJJKO5EZUqhPM9DtS-36" style="rounded=0;orthogonalLoop=1;jettySize=auto;html=1;entryX=0.75;entryY=0;entryDx=0;entryDy=0;endArrow=none;endFill=0;" parent="1" source="pSALJJKO5EZUqhPM9DtS-35" target="pSALJJKO5EZUqhPM9DtS-1" edge="1">
          <mxGeometry relative="1" as="geometry" />
        </mxCell>
        <mxCell id="pSALJJKO5EZUqhPM9DtS-35" value="AT_NAME" style="ellipse;whiteSpace=wrap;html=1;" parent="1" vertex="1">
          <mxGeometry x="280" y="110" width="80" height="50" as="geometry" />
        </mxCell>
      </root>
    </mxGraphModel>
  </diagram>
  <diagram id="P946hPnH27-KmzvgSbPJ" name="GameState">
    <mxGraphModel dx="1418" dy="820" grid="1" gridSize="10" guides="1" tooltips="1" connect="1" arrows="1" fold="1" page="1" pageScale="1" pageWidth="827" pageHeight="1169" math="0" shadow="0">
      <root>
        <mxCell id="0" />
        <mxCell id="1" parent="0" />
        <mxCell id="caAEzCb_TMHF6B-qKZz--2" style="rounded=0;orthogonalLoop=1;jettySize=auto;html=1;endArrow=none;endFill=0;" edge="1" parent="1" source="7ygXTDeeu6yD57ssG0iF-1" target="caAEzCb_TMHF6B-qKZz--1">
          <mxGeometry relative="1" as="geometry" />
        </mxCell>
        <mxCell id="MbyzBLALT5zV71Jwln_m-1" style="rounded=0;orthogonalLoop=1;jettySize=auto;html=1;entryX=0.5;entryY=1;entryDx=0;entryDy=0;endArrow=none;endFill=0;" edge="1" parent="1" source="7ygXTDeeu6yD57ssG0iF-1" target="caAEzCb_TMHF6B-qKZz--3">
          <mxGeometry relative="1" as="geometry" />
        </mxCell>
        <mxCell id="MbyzBLALT5zV71Jwln_m-2" style="rounded=0;orthogonalLoop=1;jettySize=auto;html=1;entryX=0.5;entryY=1;entryDx=0;entryDy=0;endArrow=none;endFill=0;" edge="1" parent="1" source="7ygXTDeeu6yD57ssG0iF-1" target="mX0NTqbIwFkFA9GNwKrG-1">
          <mxGeometry relative="1" as="geometry" />
        </mxCell>
        <mxCell id="7ygXTDeeu6yD57ssG0iF-1" value="Game_State" style="rounded=0;whiteSpace=wrap;html=1;" vertex="1" parent="1">
          <mxGeometry x="230" y="210" width="120" height="60" as="geometry" />
        </mxCell>
        <mxCell id="caAEzCb_TMHF6B-qKZz--1" value="&lt;u&gt;GS_ID&lt;/u&gt;" style="ellipse;whiteSpace=wrap;html=1;" vertex="1" parent="1">
          <mxGeometry x="170" y="130" width="80" height="50" as="geometry" />
        </mxCell>
        <mxCell id="caAEzCb_TMHF6B-qKZz--3" value="GS_SAVEDTIME" style="ellipse;whiteSpace=wrap;html=1;" vertex="1" parent="1">
          <mxGeometry x="270" y="110" width="110" height="60" as="geometry" />
        </mxCell>
        <mxCell id="mX0NTqbIwFkFA9GNwKrG-1" value="GS_STATUS" style="ellipse;whiteSpace=wrap;html=1;" vertex="1" parent="1">
          <mxGeometry x="390" y="140" width="110" height="60" as="geometry" />
        </mxCell>
        <mxCell id="MbyzBLALT5zV71Jwln_m-5" style="rounded=0;orthogonalLoop=1;jettySize=auto;html=1;entryX=0.25;entryY=1;entryDx=0;entryDy=0;" edge="1" parent="1" source="MbyzBLALT5zV71Jwln_m-3" target="7ygXTDeeu6yD57ssG0iF-1">
          <mxGeometry relative="1" as="geometry" />
        </mxCell>
        <mxCell id="1exuUVbyCPVRkp_rINg3-5" value="IS A" style="edgeLabel;html=1;align=center;verticalAlign=middle;resizable=0;points=[];" vertex="1" connectable="0" parent="MbyzBLALT5zV71Jwln_m-5">
          <mxGeometry x="-0.0728" relative="1" as="geometry">
            <mxPoint as="offset" />
          </mxGeometry>
        </mxCell>
        <mxCell id="MbyzBLALT5zV71Jwln_m-3" value="Map_State" style="rounded=0;whiteSpace=wrap;html=1;" vertex="1" parent="1">
          <mxGeometry x="110" y="350" width="120" height="60" as="geometry" />
        </mxCell>
        <mxCell id="MbyzBLALT5zV71Jwln_m-6" style="rounded=0;orthogonalLoop=1;jettySize=auto;html=1;" edge="1" parent="1" source="MbyzBLALT5zV71Jwln_m-4" target="7ygXTDeeu6yD57ssG0iF-1">
          <mxGeometry relative="1" as="geometry" />
        </mxCell>
        <mxCell id="1exuUVbyCPVRkp_rINg3-6" value="IS A" style="edgeLabel;html=1;align=center;verticalAlign=middle;resizable=0;points=[];" vertex="1" connectable="0" parent="MbyzBLALT5zV71Jwln_m-6">
          <mxGeometry x="-0.2199" relative="1" as="geometry">
            <mxPoint as="offset" />
          </mxGeometry>
        </mxCell>
        <mxCell id="MbyzBLALT5zV71Jwln_m-4" value="Player_State" style="rounded=0;whiteSpace=wrap;html=1;" vertex="1" parent="1">
          <mxGeometry x="354" y="340" width="120" height="60" as="geometry" />
        </mxCell>
        <mxCell id="1exuUVbyCPVRkp_rINg3-7" value="&lt;u&gt;MS_ID&lt;/u&gt;" style="ellipse;whiteSpace=wrap;html=1;" vertex="1" parent="1">
          <mxGeometry x="100" y="270" width="80" height="50" as="geometry" />
        </mxCell>
        <mxCell id="1exuUVbyCPVRkp_rINg3-10" style="rounded=0;orthogonalLoop=1;jettySize=auto;html=1;endArrow=none;endFill=0;" edge="1" parent="1" source="1exuUVbyCPVRkp_rINg3-8" target="MbyzBLALT5zV71Jwln_m-4">
          <mxGeometry relative="1" as="geometry" />
        </mxCell>
        <mxCell id="1exuUVbyCPVRkp_rINg3-8" value="&lt;u&gt;PS_ID&lt;/u&gt;" style="ellipse;whiteSpace=wrap;html=1;" vertex="1" parent="1">
          <mxGeometry x="370" y="450" width="80" height="50" as="geometry" />
        </mxCell>
        <mxCell id="1exuUVbyCPVRkp_rINg3-9" style="rounded=0;orthogonalLoop=1;jettySize=auto;html=1;entryX=0.5;entryY=0;entryDx=0;entryDy=0;endArrow=none;endFill=0;" edge="1" parent="1" source="1exuUVbyCPVRkp_rINg3-7" target="MbyzBLALT5zV71Jwln_m-3">
          <mxGeometry relative="1" as="geometry">
            <mxPoint x="120" y="430" as="targetPoint" />
          </mxGeometry>
        </mxCell>
        <mxCell id="SUUlrYLIa_OiUE7HjAlx-3" style="rounded=0;orthogonalLoop=1;jettySize=auto;html=1;entryX=0;entryY=0.5;entryDx=0;entryDy=0;endArrow=none;endFill=0;" edge="1" parent="1" source="SUUlrYLIa_OiUE7HjAlx-1" target="MbyzBLALT5zV71Jwln_m-3">
          <mxGeometry relative="1" as="geometry" />
        </mxCell>
        <mxCell id="SUUlrYLIa_OiUE7HjAlx-1" value="MS_MAP" style="ellipse;whiteSpace=wrap;html=1;" vertex="1" parent="1">
          <mxGeometry x="10" y="320" width="80" height="50" as="geometry" />
        </mxCell>
        <mxCell id="SUUlrYLIa_OiUE7HjAlx-2" value="MS_REVEALED" style="ellipse;whiteSpace=wrap;html=1;" vertex="1" parent="1">
          <mxGeometry x="10" y="410" width="120" height="50" as="geometry" />
        </mxCell>
        <mxCell id="SUUlrYLIa_OiUE7HjAlx-4" style="rounded=0;orthogonalLoop=1;jettySize=auto;html=1;entryX=0;entryY=0.75;entryDx=0;entryDy=0;endArrow=none;endFill=0;" edge="1" parent="1" source="SUUlrYLIa_OiUE7HjAlx-2" target="MbyzBLALT5zV71Jwln_m-3">
          <mxGeometry relative="1" as="geometry" />
        </mxCell>
        <mxCell id="SUUlrYLIa_OiUE7HjAlx-8" style="rounded=0;orthogonalLoop=1;jettySize=auto;html=1;endArrow=none;endFill=0;" edge="1" parent="1" source="SUUlrYLIa_OiUE7HjAlx-5" target="MbyzBLALT5zV71Jwln_m-3">
          <mxGeometry relative="1" as="geometry" />
        </mxCell>
        <mxCell id="SUUlrYLIa_OiUE7HjAlx-5" value="MS_HEIGHT" style="ellipse;whiteSpace=wrap;html=1;" vertex="1" parent="1">
          <mxGeometry x="60" y="470" width="120" height="50" as="geometry" />
        </mxCell>
        <mxCell id="SUUlrYLIa_OiUE7HjAlx-9" style="rounded=0;orthogonalLoop=1;jettySize=auto;html=1;entryX=0.75;entryY=1;entryDx=0;entryDy=0;endArrow=none;endFill=0;" edge="1" parent="1" source="SUUlrYLIa_OiUE7HjAlx-6" target="MbyzBLALT5zV71Jwln_m-3">
          <mxGeometry relative="1" as="geometry" />
        </mxCell>
        <mxCell id="SUUlrYLIa_OiUE7HjAlx-6" value="MS_WIDTH" style="ellipse;whiteSpace=wrap;html=1;" vertex="1" parent="1">
          <mxGeometry x="180" y="480" width="120" height="50" as="geometry" />
        </mxCell>
        <mxCell id="SUUlrYLIa_OiUE7HjAlx-10" style="rounded=0;orthogonalLoop=1;jettySize=auto;html=1;entryX=1;entryY=0.75;entryDx=0;entryDy=0;endArrow=none;endFill=0;" edge="1" parent="1" source="SUUlrYLIa_OiUE7HjAlx-7" target="MbyzBLALT5zV71Jwln_m-3">
          <mxGeometry relative="1" as="geometry" />
        </mxCell>
        <mxCell id="SUUlrYLIa_OiUE7HjAlx-7" value="MS_GS_ID" style="ellipse;whiteSpace=wrap;html=1;" vertex="1" parent="1">
          <mxGeometry x="240" y="420" width="120" height="50" as="geometry" />
        </mxCell>
        <mxCell id="SUUlrYLIa_OiUE7HjAlx-12" style="rounded=0;orthogonalLoop=1;jettySize=auto;html=1;entryX=0.75;entryY=1;entryDx=0;entryDy=0;endArrow=none;endFill=0;" edge="1" parent="1" source="SUUlrYLIa_OiUE7HjAlx-11" target="MbyzBLALT5zV71Jwln_m-4">
          <mxGeometry relative="1" as="geometry" />
        </mxCell>
        <mxCell id="SUUlrYLIa_OiUE7HjAlx-11" value="PS_X" style="ellipse;whiteSpace=wrap;html=1;" vertex="1" parent="1">
          <mxGeometry x="460" y="450" width="70" height="50" as="geometry" />
        </mxCell>
        <mxCell id="SUUlrYLIa_OiUE7HjAlx-16" style="rounded=0;orthogonalLoop=1;jettySize=auto;html=1;entryX=1.008;entryY=0.617;entryDx=0;entryDy=0;endArrow=none;endFill=0;entryPerimeter=0;" edge="1" parent="1" source="SUUlrYLIa_OiUE7HjAlx-13" target="MbyzBLALT5zV71Jwln_m-4">
          <mxGeometry relative="1" as="geometry" />
        </mxCell>
        <mxCell id="SUUlrYLIa_OiUE7HjAlx-13" value="PS_Y" style="ellipse;whiteSpace=wrap;html=1;" vertex="1" parent="1">
          <mxGeometry x="540" y="440" width="70" height="50" as="geometry" />
        </mxCell>
        <mxCell id="SUUlrYLIa_OiUE7HjAlx-15" style="rounded=0;orthogonalLoop=1;jettySize=auto;html=1;endArrow=none;endFill=0;" edge="1" parent="1" source="SUUlrYLIa_OiUE7HjAlx-14" target="MbyzBLALT5zV71Jwln_m-4">
          <mxGeometry relative="1" as="geometry" />
        </mxCell>
        <mxCell id="SUUlrYLIa_OiUE7HjAlx-14" value="PS_GS_ID" style="ellipse;whiteSpace=wrap;html=1;" vertex="1" parent="1">
          <mxGeometry x="540" y="355" width="70" height="50" as="geometry" />
        </mxCell>
      </root>
    </mxGraphModel>
  </diagram>
</mxfile>
